<svg width="58px" height="80px" viewBox="0 0 58 80" version="1.1" xmlns="http://www.w3.org/2000/svg" xmlns:xlink="http://www.w3.org/1999/xlink">
    <!-- Generator: Sketch 51.1 (57501) - http://www.bohemiancoding.com/sketch -->
    <desc>Created with Sketch.</desc>
    <defs>
        <polygon id="path-1" points="13.434 25.2188906 13.434 0.129850538 0.0379048209 0.129850538 0.0379048209 25.2188906 13.434 25.2188906"></polygon>
    </defs>
    <g id="Edited-payment-page-gender" stroke="none" stroke-width="1" fill="none" fill-rule="evenodd">
        <g id="iPad-Payment-page-Copy" transform="translate(-462.000000, -620.000000)">
            <g id="Group-8" transform="translate(40.000000, 570.000000)">
                <g id="Group-2">
                    <g id="Group-10" transform="translate(194.000000, 50.000000)">
                        <g id="Not-picked" transform="translate(228.000000, 0.000000)">
                            <path d="M14.2629,27.7858 C11.7189,36.4898 16.8939,60.4408 14.2029,64.9968 C11.4179,69.7098 14.8739,65.5118 9.8669,71.6608 C6.4039,75.9128 43.6379,78.0968 43.6379,60.6828 C43.6379,53.6718 43.0109,46.9038 48.8239,43.9748 C54.8029,40.9618 51.3659,28.2798 49.8459,34.8678 C47.5229,35.4038 46.6489,34.0428 46.3379,31.8608 C45.7659,40.4328 44.2679,50.5468 41.0419,56.2238 C38.9369,59.9278 36.7499,60.1338 37.7489,58.9628 C40.9959,55.1598 38.9319,53.6918 39.7919,49.5878 C40.7169,45.1708 42.7769,26.4298 40.6509,16.8058 C38.7079,17.1058 36.0999,18.1588 32.5949,20.2458 C28.8319,22.4878 20.2939,29.5518 14.2629,27.7858" id="Fill-1" fill="#E6E6E6"></path>
                            <path d="M38.6349,5.684 C28.7629,-4.269 11.7549,8.802 8.3739,1.897 C8.3699,1.889 7.4069,0.003 7.4059,0 C4.5349,7.047 -3.2071,11.517 1.4659,22.007 C3.7059,27.035 5.9389,30.525 10.2799,33.75 C10.2799,36.189 10.1429,38.89 11.1549,41.125 C11.1549,30.241 27.2039,35.951 36.4589,19.822 C36.9879,18.9 40.1959,16.134 41.3459,15.886 C39.9649,15.508 38.8019,14.937 38.1669,13.837 C35.3979,9.033 28.8269,14.617 26.2249,16.845 C13.8969,27.406 7.9469,16.442 9.5829,17.081 C14.2389,18.899 17.1319,17.67 21.6529,15.408 C24.3089,14.079 25.5849,12.084 26.9729,11.201 C29.9939,9.278 28.1669,8.033 28.0779,7.112 C27.7159,3.344 35.4399,5.031 38.6349,5.684 M46.1559,37.375 C53.5419,34.266 54.8019,27.378 52.1829,17.143 C50.3249,17.849 50.5419,18.847 48.8549,17.853 C46.7789,16.629 43.7789,16.54 41.4059,15.902 C41.4309,19.379 46.1559,26.035 46.1559,37.375" id="Fill-3" fill="#EAEAEA"></path>
                            <path d="M42.9152,16.3358 C42.7982,16.0048 42.9722,15.6408 43.3042,15.5238 C43.6352,15.4068 43.9992,15.5808 44.1162,15.9118 C44.2712,16.3478 44.6022,16.8208 44.8902,17.2308 L44.9142,17.2678 C45.1672,17.6288 45.3902,17.9508 45.5012,18.2518 C48.3762,26.0138 48.4492,26.9868 48.4322,33.4778 C49.4672,30.8588 50.7342,26.3808 51.1682,22.1698 C51.3952,19.9718 51.3862,17.8638 50.9852,16.1648 C50.6112,14.5788 49.8952,13.3668 48.7022,12.8218 C47.8032,12.4108 46.6032,12.3548 45.0352,12.7688 C44.7462,12.8438 44.4502,12.7078 44.3142,12.4558 C42.5722,9.6488 40.6092,7.9618 38.4742,7.0148 C36.3222,6.0598 33.9702,5.8438 31.4772,5.9838 C30.5892,6.0328 29.3712,6.2208 28.0122,6.4308 C24.8372,6.9208 20.9152,7.5268 17.9352,6.8338 C18.0722,7.0158 18.2282,7.1808 18.3942,7.3318 C19.1302,7.9978 20.0692,8.3748 20.6432,8.5218 C20.9832,8.6088 21.1882,8.9548 21.1012,9.2948 C21.0322,9.5678 20.7942,9.7548 20.5262,9.7718 L20.5262,9.7728 C19.6892,9.8248 18.9732,9.9188 18.3332,10.0478 C17.7052,10.1748 17.1292,10.3418 16.5692,10.5428 C14.6692,11.2218 12.3592,11.9898 10.1362,11.6558 C8.1042,11.3498 6.2092,10.1528 4.8762,7.2108 C4.7182,7.4848 4.5692,7.7548 4.4302,8.0198 C2.3642,11.9628 2.0292,15.4918 2.9122,18.4758 C3.7932,21.4558 5.8952,23.9188 8.7022,25.7268 C9.1792,26.0328 9.6652,26.3158 10.1572,26.5738 C10.4662,26.7358 10.5872,27.1178 10.4272,27.4278 L10.4282,27.4278 C9.8442,28.5588 9.8772,30.2588 10.1942,31.9128 C10.4602,33.2958 10.9082,34.6168 11.3542,35.5408 C11.4272,35.1408 11.5212,34.7248 11.6322,34.3058 C11.9072,33.2638 12.2902,32.1968 12.7292,31.3468 C12.8892,31.0348 13.2732,30.9128 13.5862,31.0728 C13.8982,31.2338 14.0202,31.6178 13.8602,31.9298 C13.4652,32.6958 13.1162,33.6698 12.8622,34.6298 C12.6032,35.6138 12.4462,36.5738 12.4462,37.2668 L12.4442,37.2668 C12.4442,37.3948 12.4062,37.5238 12.3262,37.6358 C12.1232,37.9218 11.7252,37.9888 11.4392,37.7848 C10.6242,37.2038 9.4382,34.7268 8.9442,32.1518 C8.6272,30.4998 8.5742,28.7738 9.0512,27.4198 C8.6922,27.2188 8.3462,27.0108 8.0152,26.7978 C4.9592,24.8308 2.6642,22.1278 1.6912,18.8348 C0.7192,15.5478 1.0702,11.6948 3.3042,7.4318 C3.6502,6.7708 4.0362,6.1098 4.4602,5.4498 L4.4612,5.4508 C4.5352,5.3348 4.6472,5.2428 4.7872,5.1938 C5.1182,5.0778 5.4812,5.2538 5.5962,5.5848 C6.7382,8.8638 8.4712,10.1158 10.3252,10.3948 C12.2472,10.6838 14.3802,9.9708 16.1402,9.3418 C16.7352,9.1288 17.3662,8.9468 18.0842,8.8028 L18.1922,8.7808 C17.9682,8.6298 17.7492,8.4608 17.5422,8.2738 C16.8842,7.6788 16.3472,6.8998 16.1632,5.9068 C16.1412,5.7848 16.1532,5.6548 16.2082,5.5328 C16.3512,5.2128 16.7272,5.0688 17.0472,5.2118 C19.7532,6.4158 24.2722,5.7178 27.8172,5.1698 C29.1902,4.9588 30.4222,4.7678 31.4072,4.7128 C34.0862,4.5628 36.6282,4.8018 38.9872,5.8488 C41.2532,6.8528 43.3302,8.5918 45.1662,11.4268 C46.8252,11.0618 48.1642,11.1788 49.2312,11.6658 C50.8292,12.3958 51.7642,13.9168 52.2262,15.8758 C52.6612,17.7198 52.6732,19.9708 52.4332,22.2998 C51.8012,28.4308 49.3532,35.2338 48.2962,36.4628 C48.1802,36.6148 47.9962,36.7118 47.7912,36.7118 C47.4392,36.7118 47.1532,36.4258 47.1532,36.0738 L47.1592,34.0168 C47.1802,27.2428 47.1822,26.4588 44.3062,18.6898 C44.2482,18.5328 44.0722,18.2808 43.8722,17.9948 L43.8492,17.9638 C43.5142,17.4868 43.1292,16.9378 42.9152,16.3358" id="Fill-5" fill="#2B2B2B"></path>
                            <path d="M13.2444,29.3834 C12.9064,29.2884 12.7084,28.9374 12.8034,28.5984 C12.8984,28.2604 13.2494,28.0634 13.5884,28.1574 C16.3214,28.9334 19.2694,28.5704 21.9294,27.4324 C24.7634,26.2204 27.2614,24.1354 28.8254,21.6124 C30.1154,19.5324 31.7104,17.7644 33.6304,16.5524 C35.3764,15.4494 37.3844,14.8084 39.6644,14.8084 L39.9594,14.8084 C40.3114,14.8084 40.5974,15.0944 40.5974,15.4464 C40.5974,15.7984 40.3114,16.0844 39.9594,16.0844 L39.6644,16.0844 C37.6364,16.0844 35.8544,16.6524 34.3074,17.6284 C32.5614,18.7314 31.0984,20.3574 29.9064,22.2804 C28.2044,25.0264 25.4954,27.2914 22.4284,28.6034 C19.5154,29.8494 16.2714,30.2424 13.2444,29.3834" id="Fill-7" fill="#2B2B2B"></path>
                            <path d="M10.6998,36.6452 C10.6458,36.2982 10.8838,35.9732 11.2308,35.9202 C11.5768,35.8662 11.9018,36.1042 11.9558,36.4502 C12.1998,38.0202 12.4018,39.5952 12.5978,41.1322 C13.1008,45.0632 13.5728,48.7512 14.6288,51.3152 C15.8418,54.2602 17.5348,57.1352 19.5118,59.1242 C21.1198,60.7432 22.9058,61.7622 24.7448,61.7102 C26.0518,61.6732 27.3168,61.7102 28.5528,61.7462 C30.1638,61.7942 31.7268,61.8402 33.2598,61.7112 C36.3608,61.4502 39.0708,59.1952 41.1558,56.1552 C43.7508,52.3712 45.3648,47.4062 45.5948,43.4772 C45.6138,43.1262 45.9148,42.8582 46.2648,42.8772 C46.4078,42.8842 46.5358,42.9382 46.6378,43.0232 C47.1778,43.4382 47.6548,43.6622 48.0738,43.7322 C48.6898,43.8342 49.2148,43.5762 49.6558,43.1002 C50.1718,42.5422 50.5868,41.6972 50.9098,40.7482 C51.6488,38.5722 51.8758,35.9412 51.7668,34.8112 C51.7338,34.4622 51.9898,34.1522 52.3398,34.1192 C52.6888,34.0862 52.9988,34.3432 53.0318,34.6922 C53.1518,35.9382 52.9118,38.8122 52.1158,41.1572 C51.7418,42.2562 51.2408,43.2582 50.5878,43.9622 C49.8598,44.7482 48.9608,45.1702 47.8648,44.9872 C47.5168,44.9302 47.1528,44.8082 46.7738,44.6152 C46.3308,48.5542 44.6998,53.2382 42.2068,56.8732 C39.9198,60.2072 36.8968,62.6842 33.3648,62.9812 C31.7948,63.1132 30.1808,63.0662 28.5178,63.0172 C27.2988,62.9812 26.0508,62.9442 24.7798,62.9802 C22.5508,63.0432 20.4538,61.8762 18.6098,60.0212 C16.5098,57.9082 14.7238,54.8842 13.4528,51.7982 C12.3338,49.0812 11.8508,45.3102 11.3368,41.2912 C11.1418,39.7612 10.9408,38.1932 10.6998,36.6452" id="Fill-9" fill="#2B2B2B"></path>
                            <g id="Group-13" transform="translate(44.000000, 48.863700)">
                                <mask id="mask-2" fill="white">
                                    <use xlink:href="#path-1"></use>
                                </mask>
                                <g id="Clip-12"></g>
                                <path d="M0.5216,0.6641 C0.5776,0.3171 0.9046,0.0821 1.2516,0.1381 C1.5986,0.1941 1.8336,0.5211 1.7776,0.8681 C1.6806,1.4601 1.5976,2.0641 1.5296,2.6741 C0.9916,7.4841 1.4136,12.4541 3.1196,16.3961 C4.7906,20.2541 7.7096,23.1251 12.1886,23.8571 C12.4056,23.8921 12.6326,23.9231 12.8676,23.9491 C13.2166,23.9881 13.4686,24.3031 13.4306,24.6521 C13.3916,25.0011 13.0766,25.2531 12.7276,25.2151 C12.4806,25.1871 12.2326,25.1531 11.9846,25.1131 C7.0166,24.3011 3.7906,21.1411 1.9536,16.9001 C0.1536,12.7421 -0.2964,7.5421 0.2646,2.5351 C0.3336,1.9131 0.4206,1.2881 0.5216,0.6641" id="Fill-11" fill="#2B2B2B" mask="url(#mask-2)"></path>
                            </g>
                            <path d="M16.0896,64.7076 C16.1636,64.3636 16.5036,64.1456 16.8466,64.2196 C17.1906,64.2936 17.4096,64.6326 17.3346,64.9766 C16.7516,67.6676 15.7316,69.6846 14.4646,71.2506 C13.1996,72.8146 11.6906,73.9206 10.1266,74.7936 C9.8196,74.9646 9.4316,74.8536 9.2616,74.5476 C9.0916,74.2406 9.2016,73.8526 9.5086,73.6826 C10.9416,72.8826 12.3206,71.8726 13.4726,70.4486 C14.6236,69.0266 15.5526,67.1816 16.0896,64.7076" id="Fill-14" fill="#2B2B2B"></path>
                            <path d="M18.9599,23.3237 C19.2849,23.1887 19.6569,23.3427 19.7919,23.6677 C19.9269,23.9917 19.7729,24.3647 19.4479,24.4997 C17.3849,25.3577 15.2269,25.3137 13.3099,24.6527 C11.2329,23.9367 9.4329,22.4917 8.3409,20.6827 C8.1589,20.3817 8.2559,19.9897 8.5579,19.8077 C8.8589,19.6267 9.2509,19.7237 9.4319,20.0247 C10.3719,21.5817 11.9269,22.8277 13.7229,23.4467 C15.3649,24.0127 17.2069,24.0527 18.9599,23.3237" id="Fill-16" fill="#2B2B2B"></path>
                            <path d="M12.9995,72.4649 C12.7425,72.2269 12.7265,71.8249 12.9645,71.5679 C13.2025,71.3109 13.6045,71.2949 13.8615,71.5329 C17.8995,75.2659 21.9585,77.3989 25.9275,78.2099 C30.2065,79.0839 34.3985,78.4219 38.3595,76.5709 C38.6775,76.4229 39.0555,76.5599 39.2045,76.8779 C39.3525,77.1959 39.2155,77.5739 38.8975,77.7219 C34.6935,79.6859 30.2355,80.3879 25.6735,79.4559 C21.4845,78.5999 17.2185,76.3659 12.9995,72.4649" id="Fill-18" fill="#2B2B2B"></path>
                        </g>
                    </g>
                </g>
            </g>
        </g>
    </g>
</svg>