<svg width="71px" height="86px" viewBox="0 0 71 86" version="1.1" xmlns="http://www.w3.org/2000/svg" xmlns:xlink="http://www.w3.org/1999/xlink">
    <!-- Generator: Sketch 51.1 (57501) - http://www.bohemiancoding.com/sketch -->
    <desc>Created with Sketch.</desc>
    <defs>
        <polygon id="path-1" points="39.6757644 0.543 0 0.543 0 74 59.723 74 59.723 0.543 39.6757644 0.543 5.04392872e-05 0.542533438 5.04392872e-05 59.5439249 39.6757644 59.5439249 39.6757644 0.543"></polygon>
        <polygon id="path-3" points="47.723 56.9998205 47.723 0.803393165 0.477267723 0.803393165 0.477267723 56.9998205 47.723 56.9998205"></polygon>
    </defs>
    <g id="Edited-payment-page-gender" stroke="none" stroke-width="1" fill="none" fill-rule="evenodd">
        <g id="iPad-Payment-page-Copy" transform="translate(-259.000000, -623.000000)">
            <g id="Group-8" transform="translate(40.000000, 570.000000)">
                <g id="Group-2">
                    <g id="Group-10" transform="translate(194.000000, 50.000000)">
                        <g id="Picked" transform="translate(25.000000, 2.000000)">
                            <g id="Group-3" transform="translate(0.000000, 0.457300)">
                                <mask id="mask-2" fill="white">
                                    <use xlink:href="#path-1"></use>
                                </mask>
                                <g id="Clip-2"></g>
                                <path d="M16.1596,3.1136 C-16.2524,14.1356 8.1216,68.2616 20.1096,58.3346 C20.1096,52.1316 -4.5914,31.7816 23.2526,23.7216 C23.7866,23.5666 33.4976,17.9776 23.1476,19.0016 C10.9336,20.2106 24.7606,6.6876 37.0186,3.7726 C45.8536,1.6726 31.0526,-1.9514 16.1596,3.1136" id="Fill-1" fill="#EAEAEA" mask="url(#mask-2)"></path>
                            </g>
                            <path d="M50.8018,22.3527 C59.1378,23.9307 50.9918,49.2817 42.5658,52.9097 C37.0158,55.2997 55.4838,38.7387 47.1488,23.0557 C46.5898,22.0047 49.0438,22.0197 50.8018,22.3527" id="Fill-4" fill="#EAEAEA"></path>
                            <g id="Group-8" transform="translate(12.000000, 17.457300)">
                                <mask id="mask-4" fill="white">
                                    <use xlink:href="#path-3"></use>
                                </mask>
                                <g id="Clip-7"></g>
                                <path d="M45.61,50.0958 C42.075,46.6458 24.191,42.9218 34.071,26.0848 C37.785,19.7558 38.377,-5.6752 25.963,2.3558 C21.959,4.9468 13.881,5.7518 6.778,9.9598 L6.517,10.0738 C-1.676,22.1088 20.869,36.6308 2.278,44.9708 C-6.524,48.9188 19.589,56.0218 23.646,56.1778 C24.678,56.2168 56.013,60.2478 45.61,50.0958" id="Fill-6" fill="#FFEBF3" mask="url(#mask-4)"></path>
                            </g>
                            <path d="M47.6964,40.6557 C47.4264,41.6737 47.0934,42.7167 46.6974,43.7457 C46.3224,44.7207 45.8994,45.6677 45.4304,46.5507 C44.4664,48.3687 43.2814,50.0647 41.5214,51.5287 C39.7704,52.9847 37.4644,54.1937 34.2624,55.0347 C33.9224,55.1237 33.5744,54.9207 33.4854,54.5817 C33.3964,54.2417 33.5984,53.8937 33.9384,53.8037 C36.9484,53.0137 39.0954,51.8937 40.7084,50.5517 C42.3124,49.2177 43.4064,47.6457 44.3044,45.9527 C44.7624,45.0907 45.1644,44.1947 45.5114,43.2927 C45.8844,42.3227 46.2034,41.3217 46.4654,40.3317 C46.6984,39.4537 46.8754,38.2217 47.0034,36.4797 C47.1354,34.6907 47.2154,32.4047 47.2514,29.4577 C47.2554,29.1067 47.5434,28.8257 47.8944,28.8297" id="Fill-9" fill="#2B2B2B"></path>
                            <path d="M52.4895,65.3225 C48.9345,64.6445 45.4685,63.9835 43.4385,61.3735 C42.2535,59.8515 41.6415,58.0245 41.3275,56.1465 C41.0205,54.3075 40.9985,52.4415 40.9985,50.7715 C40.9985,50.4195 41.2845,50.1345 41.6365,50.1345 C41.9885,50.1345 42.2745,50.4195 42.2745,50.7715 C42.2745,52.3965 42.2945,54.2085 42.5835,55.9375 C42.8665,57.6265 43.4075,59.2585 44.4445,60.5915 C46.1815,62.8235 49.4105,63.4395 52.7235,64.0715" id="Fill-11" fill="#2B2B2B"></path>
                            <path d="M15.8503,35.3183 C15.8503,34.9663 16.1363,34.6803 16.4883,34.6803 C16.8403,34.6803 17.1263,34.9663 17.1263,35.3183 C17.1263,39.3843 17.7663,42.3223 19.0813,44.8823 C20.4033,47.4563 22.4293,49.6933 25.1843,52.3293 C25.3143,52.4543 25.3793,52.6203 25.3793,52.7873 L25.3803,52.7873 C25.3803,54.0913 25.1073,55.8163 24.5563,57.4923 C24.0883,58.9123 23.4153,60.3113 22.5313,61.4103 C20.4733,63.9683 17.0463,64.6493 13.5433,65.3443 C10.5203,65.9443 7.4363,66.5573 5.3613,68.4213 C5.1003,68.6563 4.6973,68.6353 4.4623,68.3733 C4.2263,68.1123 4.2483,67.7093 4.5093,67.4743 C6.8463,65.3753 10.1053,64.7283 13.2993,64.0943 C16.5713,63.4443 19.7733,62.8083 21.5393,60.6133 C22.3173,59.6463 22.9193,58.3863 23.3453,57.0933 C23.8163,55.6623 24.0673,54.2023 24.1013,53.0533 C21.3573,50.4123 19.3223,48.1313 17.9503,45.4603 C16.5383,42.7113 15.8503,39.5933 15.8503,35.3183" id="Fill-13" fill="#2B2B2B"></path>
                            <path d="M44.3836,10.8868 C44.5446,10.5748 44.9286,10.4518 45.2406,10.6128 C45.5526,10.7738 45.6756,11.1578 45.5146,11.4698 C41.0866,20.0038 31.5716,23.4928 23.7586,26.3578 C20.6436,27.5008 17.8036,28.5418 15.7266,29.7478 C12.5676,31.5828 11.2006,33.8678 13.4556,37.7518 C13.6316,38.0558 13.5286,38.4448 13.2246,38.6208 C12.9206,38.7968 12.5306,38.6928 12.3546,38.3898 C9.6036,33.6518 11.2566,30.8728 15.0896,28.6468 C17.2666,27.3828 20.1526,26.3238 23.3206,25.1628 C30.9246,22.3738 40.1856,18.9778 44.3836,10.8868" id="Fill-15" fill="#2B2B2B"></path>
                            <path d="M45.8125,10.6257 C45.7465,10.9707 45.4125,11.1977 45.0675,11.1317 C44.7225,11.0657 44.4955,10.7317 44.5615,10.3867 C44.9365,8.4357 43.9215,6.8017 42.0015,5.5977 C40.3605,4.5687 38.0755,3.8467 35.4195,3.4917 C32.7325,3.1327 29.6735,3.1527 26.5195,3.6117 C17.0145,4.9937 6.6785,10.3667 3.0805,21.3727 C2.9615,21.7367 2.8535,22.0927 2.7575,22.4397 C0.8735,29.2457 1.9825,36.7167 5.3985,43.0897 C8.8145,49.4627 14.5375,54.7317 21.8805,57.1327 C22.2935,57.2677 22.7025,57.3917 23.1025,57.5017 C23.4415,57.5957 23.6395,57.9457 23.5465,58.2847 C23.4525,58.6227 23.1025,58.8207 22.7635,58.7277 C22.3225,58.6057 21.8965,58.4767 21.4875,58.3437 C13.8165,55.8357 7.8415,50.3367 4.2765,43.6877 C0.7125,37.0377 -0.4415,29.2277 1.5325,22.1007 C1.6395,21.7137 1.7515,21.3387 1.8695,20.9787 C5.6475,9.4227 16.4315,3.7907 26.3395,2.3507 C29.6055,1.8757 32.7825,1.8567 35.5835,2.2307 C38.4165,2.6097 40.8765,3.3947 42.6745,4.5217 C45.0525,6.0127 46.3005,8.0897 45.8125,10.6257" id="Fill-17" fill="#2B2B2B"></path>
                            <path d="M54.9681,15.9965 C52.7831,12.8665 49.6521,10.8225 45.5481,10.6615 C45.1971,10.6485 44.9241,10.3525 44.9381,10.0015 C44.9511,9.6505 45.2471,9.3775 45.5981,9.3915 C50.1441,9.5685 53.6031,11.8215 56.0091,15.2695" id="Fill-19" fill="#2B2B2B"></path>
                            <path d="M58.7906,40.5213 C56.8056,47.6473 52.6396,53.8293 46.4026,56.1793 C46.0736,56.3023 45.7066,56.1363 45.5826,55.8073 C45.4586,55.4783 45.6256,55.1113 45.9536,54.9873 C51.7716,52.7963 55.6806,46.9453 57.5646,40.1823" id="Fill-21" fill="#2B2B2B"></path>
                            <path d="M48.8376,27.3782 C46.4636,23.9722 43.8826,20.2702 44.6606,16.1482 C44.7256,15.8032 45.0576,15.5752 45.4026,15.6402 C45.7486,15.7052 45.9756,16.0372 45.9116,16.3822 C45.2326,19.9782 47.6556,23.4542 49.8846,26.6512" id="Fill-23" fill="#2B2B2B"></path>
                            <g id="Check-women" transform="translate(48.000000, 64.000000)">
                                <circle id="Oval-34" stroke="#979797" fill="#FFFFFF" cx="11" cy="11" r="11"></circle>
                                <text id="Check---FontAwesome" font-family="LastResort, .LastResort" font-size="14" font-weight="normal" fill="#FF458F">
                                    <tspan x="4" y="16"></tspan>
                                </text>
                            </g>
                        </g>
                    </g>
                </g>
            </g>
        </g>
    </g>
</svg>